<svg width="115" height="110" viewBox="0 0 115 110" fill="none" xmlns="http://www.w3.org/2000/svg">
<g clip-path="url(#clip0)">
<g filter="url(#filter0_d)">
<rect x="14" width="91" height="110" rx="8" fill="#014987"/>
</g>
<rect width="115" height="110" rx="8" fill="#014987"/>
<rect x="43" y="-29" width="86" height="57" rx="20" fill="#327AB4"/>
<rect x="58" y="-16" width="86" height="57" rx="20" fill="#327AB4" fill-opacity="0.5"/>
<rect x="73.3057" y="-12.7036" width="86" height="67" rx="16" transform="rotate(-3 73.3057 -12.7036)" fill="#327AB4" fill-opacity="0.4"/>
<path d="M65.2777 21.9224H69.7606C71.4352 18.8502 74.2972 16.5207 77.7322 15.5524C77.0411 13.8745 75.3909 12.6934 73.4643 12.6934C72.9827 12.6934 72.5187 12.7675 72.0827 12.9041C72.085 12.834 72.0881 12.764 72.0881 12.6934C72.0881 9.26631 69.3091 6.48755 65.8818 6.48755C62.926 6.48755 60.4549 8.55381 59.83 11.3203C59.4587 11.1965 59.0626 11.1288 58.65 11.1288C57.3804 11.1288 56.2596 11.7644 55.5875 12.7346C55.2125 12.6379 54.8188 12.5855 54.4134 12.5855C51.8353 12.5855 49.7454 14.6756 49.7454 17.2538C49.7454 19.8316 51.8354 21.9221 54.4134 21.9221H61.8768" fill="#9FDEF7"/>
<path d="M90.7739 19.0966C88.3753 16.531 84.9606 14.9272 81.1714 14.9272C74.9127 14.9272 69.6793 19.3036 68.3555 25.1624C67.5699 24.9004 66.7307 24.7563 65.8573 24.7563C63.1682 24.7563 60.7952 26.1028 59.372 28.1573C58.5776 27.9521 57.7445 27.8418 56.8857 27.8418C51.426 27.8418 47 32.2678 47 37.7276C47 43.1871 51.426 47.6137 56.8857 47.6137H67.7855C67.8085 44.2533 70.5381 41.5365 73.9034 41.5365C74.5416 41.5365 75.157 41.6344 75.7354 41.8157C75.7327 41.7231 75.7285 41.6303 75.7285 41.5365C75.7285 36.9912 79.4131 33.3064 83.9584 33.3064C87.8775 33.3064 91.1549 36.0471 91.9838 39.7156C92.4756 39.5514 93.0007 39.4613 93.5478 39.4613C95.2315 39.4613 96.7178 40.3043 97.6089 41.5911C98.1064 41.4625 98.628 41.3933 99.1656 41.3933C101.419 41.3933 103.391 42.5979 104.474 44.3977C106.044 42.6641 107 40.3648 107 37.8422C107 32.445 102.625 28.0706 97.2283 28.0706C96.2092 28.0706 95.2267 28.2268 94.3029 28.5162C94.3077 28.3682 94.3142 28.2199 94.3142 28.0706C94.3142 25.8637 93.7703 23.784 92.8089 21.9577" fill="#BEEAFC"/>
<path d="M57.4815 27.8602C57.2844 27.8482 57.0859 27.8418 56.8857 27.8418C51.426 27.8417 47 32.2678 47 37.7275C47 43.1871 51.426 47.6136 56.8857 47.6136H67.7855C67.7927 46.5592 68.0668 45.5682 68.543 44.7047C63.1537 40.557 59.183 34.6589 57.4815 27.8602Z" fill="#AEE4FF"/>
<path d="M56.5642 20.3937C56.5642 17.1872 57.0573 14.0963 57.9703 11.1912C56.9857 11.3729 56.1368 11.942 55.5875 12.7346C55.2125 12.638 54.8188 12.5856 54.4134 12.5856C51.8353 12.5856 49.7454 14.6756 49.7454 17.2539C49.7454 19.8317 51.8354 21.9222 54.4134 21.9222H56.6023C56.5774 21.4157 56.5642 20.9063 56.5642 20.3937Z" fill="#83D4ED"/>
<path d="M99.1657 41.1321C98.6281 41.1321 98.1062 41.201 97.609 41.3299C96.7179 40.0429 95.2316 39.2 93.5479 39.2C93.0008 39.2 92.4757 39.2901 91.9839 39.4543C91.1549 35.7857 87.8776 33.0452 83.9585 33.0452C79.4132 33.0452 75.7286 36.7299 75.7286 41.2753C75.7286 41.369 75.7327 41.4618 75.7355 41.5544C75.1571 41.3731 74.5417 41.2753 73.9035 41.2753C70.5244 41.2753 67.7849 44.0143 67.7849 47.3944C67.7849 50.7735 70.5245 53.5127 73.9035 53.5127H92.2234H95.6234H99.166C102.585 53.5127 105.357 50.7411 105.357 47.3224C105.356 43.9035 102.585 41.1321 99.1657 41.1321Z" fill="#E4F2F9"/>
<path d="M80.4288 39.5539C80.4288 37.3453 80.8975 35.2463 81.7395 33.3499C78.2725 34.3186 75.7284 37.4987 75.7284 41.2749C75.7284 41.3687 75.7325 41.4615 75.7353 41.5541C75.1568 41.3728 74.5415 41.2749 73.9033 41.2749C70.5242 41.2749 67.7847 44.014 67.7847 47.394C67.7847 50.7731 70.5243 53.5124 73.9033 53.5124H89.4514C84.1322 51.1155 80.4288 45.7672 80.4288 39.5539Z" fill="#D7EDF9"/>
</g>
<defs>
<filter id="filter0_d" x="2" y="-7" width="115" height="134" filterUnits="userSpaceOnUse" color-interpolation-filters="sRGB">
<feFlood flood-opacity="0" result="BackgroundImageFix"/>
<feColorMatrix in="SourceAlpha" type="matrix" values="0 0 0 0 0 0 0 0 0 0 0 0 0 0 0 0 0 0 127 0"/>
<feOffset dy="5"/>
<feGaussianBlur stdDeviation="6"/>
<feColorMatrix type="matrix" values="0 0 0 0 0.482353 0 0 0 0 0.733333 0 0 0 0 0.933333 0 0 0 0.62 0"/>
<feBlend mode="normal" in2="BackgroundImageFix" result="effect1_dropShadow"/>
<feBlend mode="normal" in="SourceGraphic" in2="effect1_dropShadow" result="shape"/>
</filter>
<clipPath id="clip0">
<rect width="115" height="110" rx="8" fill="white"/>
</clipPath>
</defs>
</svg>
