<svg width="219" height="32" viewBox="0 0 219 32" fill="none" xmlns="http://www.w3.org/2000/svg">
<path d="M9 26H6.45L0.27 6.14H2.64L7.74 22.82L13.08 6.14H15.66L21 22.82L26.1 6.14H28.47L22.29 26H19.74L14.37 9.32L9 26ZM36.3841 24.2C38.4041 24.2 39.8541 23.36 40.7341 21.68H43.1941C42.6741 23.04 41.8441 24.14 40.7041 24.98C39.5841 25.82 38.1341 26.24 36.3541 26.24C34.0941 26.24 32.2541 25.49 30.8341 23.99C29.4541 22.53 28.7641 20.7 28.7641 18.5C28.7641 16.28 29.4241 14.45 30.7441 13.01C32.1441 11.51 33.9641 10.76 36.2041 10.76C38.4441 10.76 40.2641 11.51 41.6641 13.01C42.9841 14.45 43.6441 16.28 43.6441 18.5V19.4H31.0741C31.2341 20.78 31.7841 21.92 32.7241 22.82C33.6841 23.74 34.9041 24.2 36.3841 24.2ZM36.2041 12.8C34.8241 12.8 33.6641 13.23 32.7241 14.09C31.8441 14.91 31.3041 15.98 31.1041 17.3H41.3041C41.1041 15.98 40.5641 14.91 39.6841 14.09C38.7441 13.23 37.5841 12.8 36.2041 12.8ZM58.0934 23.6C56.8934 25.36 55.1034 26.24 52.7234 26.24C50.5634 26.24 48.8034 25.49 47.4434 23.99C46.1234 22.51 45.4634 20.68 45.4634 18.5C45.4634 16.32 46.1234 14.49 47.4434 13.01C48.8034 11.51 50.6134 10.76 52.8734 10.76C55.1334 10.76 56.8734 11.65 58.0934 13.43V11H60.3434V26H58.0934V23.6ZM53.0234 24.2C54.6434 24.2 55.9234 23.64 56.8634 22.52C57.7634 21.46 58.2134 20.12 58.2134 18.5C58.2134 16.88 57.7634 15.54 56.8634 14.48C55.9234 13.36 54.6434 12.8 53.0234 12.8C51.4234 12.8 50.1234 13.36 49.1234 14.48C48.1834 15.54 47.7134 16.88 47.7134 18.5C47.7134 20.12 48.1834 21.46 49.1234 22.52C50.1234 23.64 51.4234 24.2 53.0234 24.2ZM65.8552 26V12.98H62.7952V11H65.8552V5.63H68.1052V11H71.5552V12.98H68.1052V26H65.8552ZM76.2703 5V13.34C76.8103 12.62 77.4703 12.01 78.2503 11.51C79.0303 11.01 79.9203 10.76 80.9203 10.76C81.9203 10.76 82.7803 10.9 83.5003 11.18C84.2203 11.46 84.8503 11.88 85.3903 12.44C86.6303 13.66 87.2503 15.27 87.2503 17.27V26H85.0003V17.33C85.0003 15.95 84.6103 14.85 83.8303 14.03C83.0503 13.21 82.0403 12.8 80.8003 12.8C79.5403 12.8 78.4703 13.22 77.5903 14.06C76.7103 14.92 76.2703 16.02 76.2703 17.36V26H74.0203V5H76.2703ZM97.7025 24.2C99.7225 24.2 101.173 23.36 102.053 21.68H104.513C103.993 23.04 103.163 24.14 102.023 24.98C100.903 25.82 99.4525 26.24 97.6725 26.24C95.4125 26.24 93.5725 25.49 92.1525 23.99C90.7725 22.53 90.0825 20.7 90.0825 18.5C90.0825 16.28 90.7425 14.45 92.0625 13.01C93.4625 11.51 95.2825 10.76 97.5225 10.76C99.7625 10.76 101.583 11.51 102.983 13.01C104.303 14.45 104.963 16.28 104.963 18.5V19.4H92.3925C92.5525 20.78 93.1025 21.92 94.0425 22.82C95.0025 23.74 96.2225 24.2 97.7025 24.2ZM97.5225 12.8C96.1425 12.8 94.9825 13.23 94.0425 14.09C93.1625 14.91 92.6225 15.98 92.4225 17.3H102.623C102.423 15.98 101.883 14.91 101.003 14.09C100.063 13.23 98.9025 12.8 97.5225 12.8ZM115.632 10.76V13.01H115.362C113.742 13.01 112.422 13.66 111.402 14.96C110.442 16.2 109.962 17.68 109.962 19.4V26H107.712V11H109.962V14.69C110.442 13.13 111.482 11.98 113.082 11.24C113.742 10.92 114.542 10.76 115.482 10.76H115.632ZM120.814 9.2C120.434 9.52 120.174 9.88 120.034 10.28C119.914 10.68 119.854 11.11 119.854 11.57C119.854 12.01 120.044 12.42 120.424 12.8C120.824 13.18 121.344 13.5 121.984 13.76C122.624 14.02 123.354 14.25 124.174 14.45C124.994 14.65 125.824 14.86 126.664 15.08C127.524 15.28 128.364 15.52 129.184 15.8C130.004 16.06 130.734 16.4 131.374 16.82C132.794 17.72 133.504 18.95 133.504 20.51C133.504 22.37 132.804 23.79 131.404 24.77C130.024 25.75 128.104 26.24 125.644 26.24C122.864 26.24 120.744 25.66 119.284 24.5C117.984 23.46 117.244 21.98 117.064 20.06H119.404C119.484 21.42 120.144 22.46 121.384 23.18C122.464 23.8 123.894 24.11 125.674 24.11C129.394 24.11 131.254 22.94 131.254 20.6C131.254 19.8 130.914 19.17 130.234 18.71C129.574 18.25 128.734 17.87 127.714 17.57C126.714 17.27 125.624 16.99 124.444 16.73C123.284 16.47 122.194 16.14 121.174 15.74C120.174 15.32 119.334 14.78 118.654 14.12C117.994 13.44 117.664 12.53 117.664 11.39C117.664 9.77 118.284 8.45 119.524 7.43C120.764 6.41 122.634 5.9 125.134 5.9C127.654 5.9 129.604 6.48 130.984 7.64C132.244 8.66 132.914 9.97 132.994 11.57H130.684C130.484 9.93 129.424 8.84 127.504 8.3C126.824 8.1 125.974 8 124.954 8C123.954 8 123.104 8.12 122.404 8.36C121.724 8.58 121.194 8.86 120.814 9.2ZM138.761 13.4C139.961 11.64 141.751 10.76 144.131 10.76C146.291 10.76 148.041 11.51 149.381 13.01C150.721 14.49 151.391 16.32 151.391 18.5C151.391 20.68 150.721 22.51 149.381 23.99C148.041 25.49 146.241 26.24 143.981 26.24C141.721 26.24 139.981 25.35 138.761 23.57V31.94H136.511V11H138.761V13.4ZM143.831 12.8C142.211 12.8 140.931 13.36 139.991 14.48C139.091 15.54 138.641 16.88 138.641 18.5C138.641 20.12 139.091 21.46 139.991 22.52C140.931 23.64 142.211 24.2 143.831 24.2C145.431 24.2 146.731 23.64 147.731 22.52C148.671 21.46 149.141 20.12 149.141 18.5C149.141 16.88 148.671 15.54 147.731 14.48C146.731 13.36 145.431 12.8 143.831 12.8ZM166.023 23.6C164.823 25.36 163.033 26.24 160.653 26.24C158.493 26.24 156.733 25.49 155.373 23.99C154.053 22.51 153.393 20.68 153.393 18.5C153.393 16.32 154.053 14.49 155.373 13.01C156.733 11.51 158.543 10.76 160.803 10.76C163.063 10.76 164.803 11.65 166.023 13.43V11H168.273V26H166.023V23.6ZM160.953 24.2C162.573 24.2 163.853 23.64 164.793 22.52C165.693 21.46 166.143 20.12 166.143 18.5C166.143 16.88 165.693 15.54 164.793 14.48C163.853 13.36 162.573 12.8 160.953 12.8C159.353 12.8 158.053 13.36 157.053 14.48C156.113 15.54 155.643 16.88 155.643 18.5C155.643 20.12 156.113 21.46 157.053 22.52C158.053 23.64 159.353 24.2 160.953 24.2ZM178.855 24.2C180.875 24.2 182.325 23.36 183.205 21.68H185.665C185.145 23.04 184.315 24.14 183.175 24.98C182.055 25.82 180.605 26.24 178.825 26.24C176.565 26.24 174.725 25.49 173.305 23.99C171.925 22.53 171.235 20.7 171.235 18.5C171.235 16.28 171.895 14.45 173.215 13.01C174.615 11.51 176.435 10.76 178.675 10.76C180.915 10.76 182.735 11.51 184.135 13.01C185.455 14.45 186.115 16.28 186.115 18.5V19.4H173.545C173.705 20.78 174.255 21.92 175.195 22.82C176.155 23.74 177.375 24.2 178.855 24.2ZM178.675 12.8C177.295 12.8 176.135 13.23 175.195 14.09C174.315 14.91 173.775 15.98 173.575 17.3H183.775C183.575 15.98 183.035 14.91 182.155 14.09C181.215 13.23 180.055 12.8 178.675 12.8ZM202.901 3.74H200.126V12.215H196.601V3.74H193.841V0.949999H202.901V3.74ZM218.078 0.949999V12.215H214.958V7.355C214.958 7.175 214.963 6.98 214.973 6.77C214.983 6.56 214.998 6.34 215.018 6.11L212.768 10.73C212.518 11.21 212.113 11.45 211.553 11.45H211.088C210.828 11.45 210.588 11.39 210.368 11.27C210.158 11.14 209.993 10.96 209.873 10.73L207.683 6.14C207.703 6.36 207.718 6.575 207.728 6.785C207.738 6.985 207.743 7.175 207.743 7.355V12.215H204.638V0.949999H207.353C207.653 0.949999 207.883 0.974999 208.043 1.025C208.213 1.075 208.368 1.225 208.508 1.475L210.563 6.095C210.703 6.355 210.838 6.625 210.968 6.905C211.098 7.185 211.218 7.47 211.328 7.76C211.438 7.46 211.558 7.165 211.688 6.875C211.818 6.585 211.953 6.31 212.093 6.05L214.208 1.475C214.338 1.225 214.483 1.075 214.643 1.025C214.813 0.974999 215.048 0.949999 215.348 0.949999H218.078Z" fill="#EFF0F3"/>
</svg>
